# xmcd
#
# Track frame offsets:
# 150
# 12392
# 27525
# 41707
# 53792
# 62782
# 73565
# 84220
# 95822
# 107742
# 122015
# 133810
#
# Disc length: 1993 seconds
#
#
# Revision: 0
# Processed by: cddbd v1.5.1PL0 Copyright (c) Steve Scherf et al.
# Submitted via: FreeRIP 2.51 
#
DISCID=a807c70c
DTITLE=Bluegrass Diamonds - Memories to hold
DYEAR=1998
DGENRE=Bluegrass
TTITLE0=Thanks for the trip to Paridise
TTITLE1=Who's that girl
TTITLE2=Another place another time
TTITLE3=Masons Pride
TTITLE4=Gonna take me away
TTITLE5=Petitcodiac River
TTITLE6=Memories to hold
TTITLE7=Leaving me behind
TTITLE8=Long long ago
TTITLE9=Bluegrass in Heaven
TTITLE10=Leaving town
TTITLE11=Rocking Chair
EXTD=
EXTT0=
EXTT1=
EXTT2=
EXTT3=
EXTT4=
EXTT5=
EXTT6=
EXTT7=
EXTT8=
EXTT9=
EXTT10=
EXTT11=
PLAYORDER=
